ffmpeg version 7.1.1 Copyright (c) 2000-2025 the FFmpeg developers
  built with Apple clang version 17.0.0 (clang-1700.0.13.3)
  configuration: --prefix=/opt/homebrew/Cellar/ffmpeg/7.1.1_3 --enable-shared --enable-pthreads --enable-version3 --cc=clang --host-cflags= --host-ldflags='-Wl,-ld_classic' --enable-ffplay --enable-gnutls --enable-gpl --enable-libaom --enable-libaribb24 --enable-libbluray --enable-libdav1d --enable-libharfbuzz --enable-libjxl --enable-libmp3lame --enable-libopus --enable-librav1e --enable-librist --enable-librubberband --enable-libsnappy --enable-libsrt --enable-libssh --enable-libsvtav1 --enable-libtesseract --enable-libtheora --enable-libvidstab --enable-libvmaf --enable-libvorbis --enable-libvpx --enable-libwebp --enable-libx264 --enable-libx265 --enable-libxml2 --enable-libxvid --enable-lzma --enable-libfontconfig --enable-libfreetype --enable-frei0r --enable-libass --enable-libopencore-amrnb --enable-libopencore-amrwb --enable-libopenjpeg --enable-libspeex --enable-libsoxr --enable-libzmq --enable-libzimg --disable-libjack --disable-indev=jack --enable-videotoolbox --enable-audiotoolbox --enable-neon
  libavutil      59. 39.100 / 59. 39.100
  libavcodec     61. 19.101 / 61. 19.101
  libavformat    61.  7.100 / 61.  7.100
  libavdevice    61.  3.100 / 61.  3.100
  libavfilter    10.  4.100 / 10.  4.100
  libswscale      8.  3.100 /  8.  3.100
  libswresample   5.  3.100 /  5.  3.100
  libpostproc    58.  3.100 / 58.  3.100
2025-07-08 05:32:28.247 ffmpeg[21852:458470] WARNING: Add NSCameraUseContinuityCameraDeviceType to your Info.plist to use AVCaptureDeviceTypeContinuityCamera.
objc[21852]: class `NSKVONotifying_AVCaptureScreenInput' not linked into application
objc[21852]: class `NSKVONotifying_AVCaptureScreenInput' not linked into application
objc[21852]: class `NSKVONotifying_AVCaptureScreenInput' not linked into application
[AVFoundation indev @ 0x139804280] Configuration of video device failed, falling back to default.
[avfoundation @ 0x139804550] Selected pixel format (yuv420p) is not supported by the input device.
[avfoundation @ 0x139804550] Supported pixel formats:
[avfoundation @ 0x139804550]   uyvy422
[avfoundation @ 0x139804550]   yuyv422
[avfoundation @ 0x139804550]   nv12
[avfoundation @ 0x139804550]   0rgb
[avfoundation @ 0x139804550]   bgr0
[avfoundation @ 0x139804550] Overriding selected pixel format to use uyvy422 instead.
[avfoundation @ 0x139804550] Stream #0: not enough frames to estimate rate; consider increasing probesize
Input #0, avfoundation, from '3':
  Duration: N/A, start: 32411.149500, bitrate: N/A
  Stream #0:0: Video: rawvideo (UYVY / 0x59565955), uyvy422, 3600x2338, 1000k tbr, 1000k tbn
Stream mapping:
  Stream #0:0 -> #0:0 (rawvideo (native) -> h264 (libx264))
Press [q] to stop, [?] for help
[libx264 @ 0x138742430] MB rate (33075000000) > level limit (16711680)
[libx264 @ 0x138742430] using cpu capabilities: ARMv8 NEON
[libx264 @ 0x138742430] profile High 4:2:2, level 6.2, 4:2:2, 8-bit
[libx264 @ 0x138742430] 264 - core 164 r3108 31e19f9 - H.264/MPEG-4 AVC codec - Copyleft 2003-2023 - http://www.videolan.org/x264.html - options: cabac=0 ref=1 deblock=0:0:0 analyse=0:0 me=dia subme=0 psy=1 psy_rd=1.00:0.00 mixed_ref=0 me_range=16 chroma_me=1 trellis=0 8x8dct=0 cqm=0 deadzone=21,11 fast_pskip=1 chroma_qp_offset=0 threads=15 lookahead_threads=2 sliced_threads=0 nr=0 decimate=1 interlaced=0 bluray_compat=0 constrained_intra=0 bframes=0 weightp=0 keyint=250 keyint_min=25 scenecut=0 intra_refresh=0 rc=crf mbtree=0 crf=23.0 qcomp=0.60 qpmin=0 qpmax=69 qpstep=4 ip_ratio=1.40 aq=0
Output #0, mp4, to '/Users/maxnovo/Desktop/qa.guru/18.08 Page_Object/resources/output.mp4':
  Metadata:
    encoder         : Lavf61.7.100
  Stream #0:0: Video: h264 (avc1 / 0x31637661), yuv422p(tv, progressive), 3600x2338, q=2-31, 1000k fps, 1000k tbn
      Metadata:
        encoder         : Lavc61.19.101 libx264
      Side data:
        cpb: bitrate max/min/avg: 0/0/0 buffer size: 0 vbv_delay: N/A
frame=    0 fps=0.0 q=0.0 size=       0KiB time=N/A bitrate=N/A speed=N/A    frame=   14 fps= 14 q=13.0 size=     512KiB time=00:00:00.43 bitrate=9680.0kbits/s speed=0.432x    frame=   29 fps= 19 q=13.0 size=     768KiB time=00:00:00.93 bitrate=6741.3kbits/s speed=0.62x    frame=   45 fps= 22 q=17.0 size=     768KiB time=00:00:01.46 bitrate=4289.9kbits/s speed=0.73x    frame=   59 fps= 23 q=14.0 size=    1024KiB time=00:00:01.93 bitrate=4339.1kbits/s speed=0.768x    frame=   74 fps= 24 q=14.0 size=    1280KiB time=00:00:02.46 bitrate=4251.1kbits/s speed=0.816x    frame=   89 fps= 25 q=13.0 size=    1536KiB time=00:00:02.96 bitrate=4241.6kbits/s speed=0.842x    frame=  104 fps= 26 q=14.0 size=    1536KiB time=00:00:03.46 bitrate=3629.8kbits/s speed=0.861x    frame=  119 fps= 26 q=18.0 size=    1536KiB time=00:00:03.96 bitrate=3172.3kbits/s speed=0.875x    frame=  134 fps= 27 q=13.0 size=    1792KiB time=00:00:04.46 bitrate=3286.7kbits/s speed=0.887x    frame=  149 fps= 27 q=13.0 size=    2048KiB time=00:00:04.96 bitrate=3378.0kbits/s speed=0.897x    frame=  164 fps= 27 q=13.0 size=    2048KiB time=00:00:05.46 bitrate=3069.1kbits/s speed=0.904x    frame=  179 fps= 27 q=13.0 size=    2048KiB time=00:00:05.96 bitrate=2811.9kbits/s speed=0.911x    frame=  195 fps= 28 q=20.0 size=    2048KiB time=00:00:06.50 bitrate=2581.2kbits/s speed=0.922x    frame=  209 fps= 28 q=13.0 size=    2304KiB time=00:00:06.96 bitrate=2709.3kbits/s speed=0.922x    frame=  225 fps= 28 q=14.0 size=    2304KiB time=00:00:07.50 bitrate=2516.6kbits/s speed=0.931x    frame=  240 fps= 28 q=19.0 size=    2560KiB time=00:00:08.00 bitrate=2621.5kbits/s speed=0.935x    [out#0/mp4 @ 0x6000004d0240] video:3945KiB audio:0KiB subtitle:0KiB other streams:0KiB global headers:0KiB muxing overhead: 0.084488%
frame=  268 fps= 30 q=-1.0 Lsize=    3948KiB time=00:00:08.93 bitrate=3620.6kbits/s speed=0.99x    
[libx264 @ 0x138742430] frame I:2     Avg QP:16.00  size:486288
[libx264 @ 0x138742430] frame P:266   Avg QP:14.33  size: 11528
[libx264 @ 0x138742430] mb I  I16..4: 100.0%  0.0%  0.0%
[libx264 @ 0x138742430] mb P  I16..4:  2.8%  0.0%  0.0%  P16..4:  1.1%  0.0%  0.0%  0.0%  0.0%    skip:96.1%
[libx264 @ 0x138742430] coded y,uvDC,uvAC intra: 8.9% 13.2% 7.4% inter: 0.4% 0.6% 0.2%
[libx264 @ 0x138742430] i16 v,h,dc,p: 79% 19%  1%  1%
[libx264 @ 0x138742430] i8c dc,h,v,p: 74% 11% 14%  1%
[libx264 @ 0x138742430] kb/s:3603.59
Exiting normally, received signal 15.
